<svg xmlns="http://www.w3.org/2000/svg" width="39.0407mm" height="7.0556mm" viewBox="0 0 110.6667 20">
  <defs>
    <style>
      .a {
        fill: #0091dc;
        fill-rule: evenodd;
      }
    </style>
  </defs>
  <path class="a" d="M66.6691.67A.6683.6683,0,0,1,67.34,0H87.3337a.6686.6686,0,0,1,.671.67V3.337a.6677.6677,0,0,1-.671.6659H80.6693a.6638.6638,0,0,0-.6633.6658V19.33a.6687.6687,0,0,1-.6711.67H75.3394a.6687.6687,0,0,1-.6711-.67V4.6687a.6638.6638,0,0,0-.6634-.6658H67.34a.6674.6674,0,0,1-.671-.6659V.67ZM44.0031,8.0023a3.9969,3.9969,0,0,0,3.9994,3.9954H58.67a1.3346,1.3346,0,0,1,1.3344,1.3356v1.3318A1.3322,1.3322,0,0,1,58.67,16.0008H50.0019a.6693.6693,0,0,1-.6672-.67.6665.6665,0,0,0-.665-.6659H44.6672a.6663.6663,0,0,0-.6641.6659v.67A3.9977,3.9977,0,0,0,48.0025,20H61.3386a3.9989,3.9989,0,0,0,3.9956-3.9992V11.9977a3.9956,3.9956,0,0,0-3.9956-3.9954H50.6691a1.335,1.335,0,0,1-1.3344-1.3356V5.3349a1.3318,1.3318,0,0,1,1.3344-1.332h8.6641a.6655.6655,0,0,1,.671.6658.6663.6663,0,0,0,.6634.6662h4.0032a.6663.6663,0,0,0,.6634-.6662V4.0029A4.002,4.002,0,0,0,61.3386,0H48.0025a4.0009,4.0009,0,0,0-3.9994,4.0029V8.0023ZM21.3347.67A.6681.6681,0,0,1,22.0019,0h20a.67.67,0,0,1,.6672.67V3.337a.6686.6686,0,0,1-.6672.6659H27.3357a.6647.6647,0,0,0-.6672.6658V7.3362a.667.667,0,0,0,.6672.6661H40.6678a.6663.6663,0,0,1,.6672.6659v2.6675a.6654.6654,0,0,1-.6672.662H27.3357a.6678.6678,0,0,0-.6672.67V15.331a.6679.6679,0,0,0,.6672.67H42.0022a.6663.6663,0,0,1,.6672.6659V19.33a.67.67,0,0,1-.6672.67h-20a.6681.6681,0,0,1-.6672-.67V.67ZM.6672,20A.67.67,0,0,1,0,19.33V.67A.67.67,0,0,1,.6672,0H19.3336a.6681.6681,0,0,1,.6672.67V3.337a.6672.6672,0,0,1-.6672.6659H6.001a.667.667,0,0,0-.6672.6658V7.3362a.6694.6694,0,0,0,.6672.6661H18.0027a.6668.6668,0,0,1,.6672.6659l-.0035,2.6675a.663.663,0,0,1-.6637.662H6.001a.67.67,0,0,0-.6672.67V19.33a.668.668,0,0,1-.6672.67ZM106.6711,0H93.3347a4.002,4.002,0,0,0-3.9956,4.0029V16.0008A3.9989,3.9989,0,0,0,93.3347,20h13.3364a3.994,3.994,0,0,0,3.9956-3.9992V4.0029A3.9972,3.9972,0,0,0,106.6711,0Zm-1.3344,14.6651a1.3325,1.3325,0,0,1-1.3344,1.3357H96.0035a1.3325,1.3325,0,0,1-1.3344-1.3357v-9.33a1.3294,1.3294,0,0,1,1.3344-1.332h7.9988a1.3294,1.3294,0,0,1,1.3344,1.332Z"/>
</svg>
